<svg width="14" height="8" viewBox="0 0 14 8" fill="none" xmlns="http://www.w3.org/2000/svg">
<path d="M13.4202 6.4563C13.0033 5.95634 12.5128 5.52965 12.0487 5.07655C11.63 4.66814 11.6036 4.43122 11.9402 3.95984C12.3075 3.44538 12.7026 2.95064 13.0733 2.43849C13.4193 1.95986 13.773 1.48254 13.9551 0.909458C14.0706 0.544863 13.9684 0.38382 13.5946 0.319983C13.5301 0.308811 13.4635 0.308231 13.398 0.308231L11.1798 0.30562C10.9066 0.301557 10.7556 0.420671 10.6589 0.662816C10.5285 0.990125 10.394 1.31714 10.2386 1.63299C9.88607 2.34912 9.49231 3.04132 8.94027 3.62746C8.81854 3.75673 8.6839 3.92009 8.4805 3.85277C8.22602 3.75992 8.15101 3.34063 8.15522 3.19888L8.15304 0.638587C8.10371 0.272831 8.02261 0.109757 7.65947 0.0386658L5.35525 0.0391011C5.04767 0.0391011 4.89345 0.157924 4.72921 0.350305C4.63447 0.461439 4.60589 0.533546 4.80059 0.570397C5.18303 0.642939 5.39848 0.890452 5.45565 1.27391C5.54734 1.8866 5.54095 2.50175 5.48814 3.11691C5.47262 3.29652 5.44172 3.4757 5.37048 3.64341C5.25906 3.90703 5.07915 3.96071 4.84281 3.79851C4.62881 3.65168 4.47851 3.44451 4.33139 3.23646C3.77877 2.45561 3.33786 1.61355 2.97834 0.728684C2.87446 0.473046 2.69528 0.318097 2.42441 0.313889C1.75891 0.303298 1.09327 0.301557 0.427769 0.31447C0.0273378 0.322014 -0.0920661 0.516426 0.071008 0.879426C0.795846 2.49174 1.60266 4.05923 2.65582 5.48714C3.19655 6.21996 3.81736 6.86688 4.61938 7.32535C5.52833 7.84504 6.50678 8.00144 7.53731 7.95327C8.01985 7.93064 8.16479 7.80514 8.18714 7.32419C8.20222 6.99514 8.23951 6.66797 8.40186 6.37229C8.56116 6.08213 8.80244 6.02685 9.08056 6.20733C9.2197 6.29772 9.33692 6.41277 9.44762 6.53406C9.71922 6.83119 9.9811 7.13732 10.263 7.42444C10.6166 7.78425 11.0354 7.9968 11.5621 7.95342L13.6008 7.95385C13.9293 7.93238 14.0996 7.52963 13.911 7.163C13.7785 6.9062 13.6047 6.67755 13.4202 6.4563Z" fill="white"/>
</svg>
